# xmcd
#
# Track frame offsets:
# 150
# 14817
# 19968
# 31250
# 40590
# 54358
# 62778
# 78050
# 89895
# 102252
# 112530
# 122903
#
# Disc length: 1778 seconds
#
#
# Revision: 0
# Processed by: cddbd v1.5PL3 Copyright (c) Steve Scherf et al.
# Submitted via: FreeRIP 2.53 
#
DISCID=9206f00c
DTITLE=Fats Domino - The best of Fats Domino
DYEAR=1994
DGENRE=Blues
TTITLE0=Blueberry Hill
TTITLE1=Whole lotta loving
TTITLE2=Ain't that a shame
TTITLE3=I'm walking
TTITLE4=Lawdy Miss Clawdy
TTITLE5=Red sails in the street
TTITLE6=Jambalaya
TTITLE7=I want to walk you home
TTITLE8=I know
TTITLE9=forever forever
TTITLE10=Lady madonna
TTITLE11=I'm gonna be a wheel someday
EXTD=
EXTT0=
EXTT1=
EXTT2=
EXTT3=
EXTT4=
EXTT5=
EXTT6=
EXTT7=
EXTT8=
EXTT9=
EXTT10=
EXTT11=
PLAYORDER=
